<?xml version="1.0" encoding="utf-8"?>
<!-- Generator: Adobe Illustrator 26.0.1, SVG Export Plug-In . SVG Version: 6.00 Build 0)  -->
<svg version="1.1" id="レイヤー_1" xmlns="http://www.w3.org/2000/svg" xmlns:xlink="http://www.w3.org/1999/xlink" x="0px"
	 y="0px" viewBox="0 0 140 27" style="enable-background:new 0 0 140 27;" xml:space="preserve">
<style type="text/css">
	.st0{fill:#003894;}
</style>
<g>
	<g>
		<path class="st0" d="M16.5,3.1L1.1,10.5c-0.2,0.1-0.1,0.3,0,0.4l6.5,2.3c0.1,0,0.1,0.1,0.1,0.1l3,6.2c0.1,0.2,0.3,0.1,0.4,0
			l5.6-16.1C16.8,3.2,16.6,3,16.5,3.1z"/>
		<g>
			<path class="st0" d="M32.5,19.6c-0.1,0-0.2-0.1-0.3-0.2l-1.3-4h-6.2l-1.2,4c0,0.1-0.2,0.2-0.3,0.2H20c-0.1,0-0.2-0.1-0.1-0.2
				l5.6-16.1c0-0.1,0.2-0.2,0.3-0.2h4.4c0.1,0,0.2,0.1,0.3,0.2l5.5,16.1c0,0.1,0,0.2-0.1,0.2H32.5z M30.1,12.5l-2.3-7.1l-2.1,7.1
				H30.1z"/>
			<path class="st0" d="M37.6,19.6c-0.1,0-0.2-0.1-0.2-0.2V3.3c0-0.1,0.1-0.2,0.2-0.2h3.2c0.1,0,0.2,0.1,0.2,0.2v16.1
				c0,0.1-0.1,0.2-0.2,0.2H37.6z"/>
			<path class="st0" d="M50.7,15.9l-1.6-2.5h-2.4l0.1,5.9c0,0.1-0.1,0.2-0.2,0.2h-3.2c-0.1,0-0.2-0.1-0.2-0.2V3.3
				c0-0.1,0.1-0.2,0.2-0.2H50c4.1,0,6.5,1.7,6.5,5.2c0,2.4-1.3,4.1-3.7,4.8l4.1,6.3c0,0.1,0,0.2-0.1,0.2h-3.8
				c-0.1,0-0.3-0.1-0.3-0.2L50.7,15.9z M50.2,5.7h-3.4l-0.1,5.2h3.6c1.5,0,2.8-0.7,2.8-2.5C53.1,6.5,52,5.7,50.2,5.7z"/>
			<path class="st0" d="M64.1,19.6c-0.1,0-0.2-0.1-0.2-0.2V3.3c0-0.1,0.1-0.2,0.2-0.2H70c4.7,0,8.8,2.6,8.8,8.4
				c0,5.9-4.1,8.2-8.7,8.2H64.1z M67.6,16.9h2.6c2.7,0,4.8-1.6,4.8-5.5s-2.1-5.7-4.9-5.7h-2.5C67.6,5.8,67.6,16.9,67.6,16.9z"/>
			<path class="st0" d="M92,15.5c0.1,0,0.2,0.1,0.2,0.2c-0.3,2.2-2.4,4.2-5.8,4.2c-4.1,0-6.3-2.7-6.3-6.4c0-3.9,2.3-6.4,6.2-6.4
				c4,0,6.2,2.6,6.3,6.9c0,0.1-0.1,0.2-0.2,0.2h-8.7c0.1,2.3,1,3.3,2.7,3.3c1.2,0,2-0.5,2.4-1.8c0-0.1,0.1-0.2,0.3-0.2H92z
				 M86.3,9.5c-1.4,0-2.3,0.9-2.6,2.5h5C88.6,10.7,87.9,9.5,86.3,9.5z"/>
			<path class="st0" d="M100,19.9c-3.5,0-5.8-1.4-5.9-4.2c0-0.1,0.1-0.2,0.2-0.2h3c0.1,0,0.2,0.1,0.2,0.2c0.1,1.4,1,2,2.6,2
				c1.4,0,2.1-0.5,2.1-1.5c0-2.3-8-0.1-8-5.2c0-2.5,2-3.9,5.3-3.9c3.2,0,5.3,1.3,5.6,3.8c0,0.1-0.1,0.2-0.2,0.2h-2.9
				c-0.1,0-0.2-0.1-0.2-0.2c-0.2-1-0.9-1.7-2.3-1.7c-1.2,0-1.9,0.4-1.9,1.5c0,2.3,8,0,8,5.1C105.7,18.4,103.3,19.9,100,19.9z"/>
			<path class="st0" d="M107.6,6.3c-0.1,0-0.2-0.1-0.2-0.2V3.3c0-0.1,0.1-0.2,0.2-0.2h3.2c0.1,0,0.2,0.1,0.2,0.2V6
				c0,0.1-0.1,0.2-0.2,0.2H107.6z M107.6,19.6c-0.1,0-0.2-0.1-0.2-0.2V7.7c0-0.1,0.1-0.2,0.2-0.2h3.2c0.1,0,0.2,0.1,0.2,0.2v11.7
				c0,0.1-0.1,0.2-0.2,0.2H107.6z"/>
			<path class="st0" d="M119.1,24.3c-3.2,0-5.6-1.3-5.8-3.9c0-0.1,0.1-0.2,0.2-0.2h3c0.1,0,0.2,0.1,0.3,0.2c0.2,1,1,1.6,2.4,1.6
				c1.5,0,2.6-0.9,2.6-2.8v-1.4c-0.8,1.1-2,1.7-3.5,1.7c-3.6,0-5.5-2.7-5.5-6.1c0-3.4,2-6.2,5.3-6.2c1.5,0,2.7,0.5,3.5,1.5l-0.1-1.1
				c0-0.1,0.1-0.2,0.2-0.2h3.1c0.1,0,0.2,0.1,0.2,0.2l0,6l0,5.6C125.1,22.3,123.1,24.3,119.1,24.3z M119.1,17.2
				c1.7,0,2.6-1.2,2.7-3.7c0-2.5-0.9-3.9-2.6-3.9c-1.8,0-2.7,1.3-2.7,3.7C116.4,15.9,117.4,17.2,119.1,17.2z"/>
			<path class="st0" d="M127.5,19.6c-0.1,0-0.2-0.1-0.2-0.2l0.1-5.6l0-6.1c0-0.1,0.1-0.2,0.2-0.2h3c0.1,0,0.2,0.1,0.2,0.2L130.7,9
				c0.8-1.1,2.2-1.8,3.9-1.8c2.6,0,4.2,1.7,4.2,4.7v2.6l0.1,5c0,0.1-0.1,0.2-0.2,0.2h-3.2c-0.1,0-0.2-0.1-0.2-0.2l0-5v-2.5
				c0-1.3-0.8-2.2-1.8-2.2c-1.3,0-2.6,1.2-2.6,3.8v0.9l0,5c0,0.1-0.1,0.2-0.2,0.2H127.5z"/>
		</g>
	</g>
</g>
</svg>
